<svg width="107" height="45" viewBox="0 0 107 45" fill="none" xmlns="http://www.w3.org/2000/svg">
<path d="M7.45058e-09 9.8V2.38419e-06H3.248V7.238H6.356V2.38419e-06H9.604V9.8H7.45058e-09ZM7.868 11.718V9.086L8.554 9.8H6.356V7.238H10.892V11.718H7.868ZM15.0279 3.64H19.3959V6.02H15.0279V3.64ZM15.2519 7.308H20.1519V9.8H12.0039V2.38419e-06H19.9699V2.492H15.2519V7.308ZM27.8482 2.38419e-06H31.1522V9.8H27.8482V2.38419e-06ZM24.7962 9.8H21.4922V2.38419e-06H24.7962V9.8ZM28.0722 6.188H24.5722V3.472H28.0722V6.188ZM35.1205 9.8V1.848L35.8345 2.562H32.2505V2.38419e-06H41.2385V2.562H37.6545L38.3685 1.848V9.8H35.1205ZM42.3281 9.8V2.38419e-06H47.0461C47.9608 2.38419e-06 48.7495 0.149336 49.4121 0.448002C50.0841 0.746669 50.6021 1.176 50.9661 1.736C51.3301 2.28667 51.5121 2.94 51.5121 3.696C51.5121 4.452 51.3301 5.10534 50.9661 5.656C50.6021 6.20667 50.0841 6.636 49.4121 6.944C48.7495 7.24267 47.9608 7.392 47.0461 7.392H44.1621L45.6321 5.978V9.8H42.3281ZM45.6321 6.342L44.1621 4.844H46.8361C47.2935 4.844 47.6295 4.74134 47.8441 4.536C48.0681 4.33067 48.1801 4.05067 48.1801 3.696C48.1801 3.34134 48.0681 3.06134 47.8441 2.856C47.6295 2.65067 47.2935 2.548 46.8361 2.548H44.1621L45.6321 1.05V6.342ZM6.356 17H9.66V26.8H6.356V17ZM3.304 26.8H7.45058e-09V17H3.304V26.8ZM6.58 23.188H3.08V20.472H6.58V23.188ZM16.3863 27.024C15.593 27.024 14.8557 26.898 14.1743 26.646C13.5023 26.394 12.919 26.0393 12.4243 25.582C11.9297 25.1153 11.5423 24.5693 11.2623 23.944C10.9917 23.3187 10.8563 22.6373 10.8563 21.9C10.8563 21.1533 10.9917 20.472 11.2623 19.856C11.5423 19.2307 11.9297 18.6893 12.4243 18.232C12.919 17.7653 13.5023 17.406 14.1743 17.154C14.8557 16.902 15.593 16.776 16.3863 16.776C17.189 16.776 17.9263 16.902 18.5983 17.154C19.2703 17.406 19.8537 17.7653 20.3483 18.232C20.843 18.6893 21.2257 19.2307 21.4963 19.856C21.7763 20.472 21.9163 21.1533 21.9163 21.9C21.9163 22.6373 21.7763 23.3187 21.4963 23.944C21.2257 24.5693 20.843 25.1153 20.3483 25.582C19.8537 26.0393 19.2703 26.394 18.5983 26.646C17.9263 26.898 17.189 27.024 16.3863 27.024ZM16.3863 24.35C16.6943 24.35 16.979 24.294 17.2403 24.182C17.511 24.07 17.7443 23.9113 17.9403 23.706C18.1457 23.4913 18.3043 23.2347 18.4163 22.936C18.5283 22.628 18.5843 22.2827 18.5843 21.9C18.5843 21.5173 18.5283 21.1767 18.4163 20.878C18.3043 20.57 18.1457 20.3133 17.9403 20.108C17.7443 19.8933 17.511 19.73 17.2403 19.618C16.979 19.506 16.6943 19.45 16.3863 19.45C16.0783 19.45 15.789 19.506 15.5183 19.618C15.257 19.73 15.0237 19.8933 14.8183 20.108C14.6223 20.3133 14.4683 20.57 14.3563 20.878C14.2443 21.1767 14.1883 21.5173 14.1883 21.9C14.1883 22.2827 14.2443 22.628 14.3563 22.936C14.4683 23.2347 14.6223 23.4913 14.8183 23.706C15.0237 23.9113 15.257 24.07 15.5183 24.182C15.789 24.294 16.0783 24.35 16.3863 24.35ZM23.1055 26.8V17H28.0755C29.2888 17 30.2268 17.224 30.8895 17.672C31.5615 18.12 31.8975 18.75 31.8975 19.562C31.8975 20.3553 31.5895 20.9853 30.9735 21.452C30.3575 21.9093 29.5268 22.138 28.4815 22.138L28.7615 21.382C29.8721 21.382 30.7448 21.6013 31.3795 22.04C32.0141 22.4787 32.3315 23.118 32.3315 23.958C32.3315 24.826 31.9861 25.5167 31.2955 26.03C30.6048 26.5433 29.6201 26.8 28.3415 26.8H23.1055ZM26.3535 24.49H28.1875C28.4581 24.49 28.6588 24.4247 28.7895 24.294C28.9295 24.154 28.9995 23.958 28.9995 23.706C28.9995 23.454 28.9295 23.2673 28.7895 23.146C28.6588 23.0153 28.4581 22.95 28.1875 22.95H26.3535V24.49ZM26.3535 20.766H27.7535C28.0335 20.766 28.2388 20.7053 28.3695 20.584C28.5001 20.4627 28.5655 20.2853 28.5655 20.052C28.5655 19.8093 28.5001 19.6273 28.3695 19.506C28.2388 19.3753 28.0335 19.31 27.7535 19.31H26.3535V20.766ZM38.4938 27.024C37.7004 27.024 36.9631 26.898 36.2818 26.646C35.6098 26.394 35.0264 26.0393 34.5318 25.582C34.0371 25.1153 33.6498 24.5693 33.3698 23.944C33.0991 23.3187 32.9638 22.6373 32.9638 21.9C32.9638 21.1533 33.0991 20.472 33.3698 19.856C33.6498 19.2307 34.0371 18.6893 34.5318 18.232C35.0264 17.7653 35.6098 17.406 36.2818 17.154C36.9631 16.902 37.7004 16.776 38.4938 16.776C39.2964 16.776 40.0338 16.902 40.7058 17.154C41.3778 17.406 41.9611 17.7653 42.4558 18.232C42.9504 18.6893 43.3331 19.2307 43.6038 19.856C43.8838 20.472 44.0238 21.1533 44.0238 21.9C44.0238 22.6373 43.8838 23.3187 43.6038 23.944C43.3331 24.5693 42.9504 25.1153 42.4558 25.582C41.9611 26.0393 41.3778 26.394 40.7058 26.646C40.0338 26.898 39.2964 27.024 38.4938 27.024ZM38.4938 24.35C38.8018 24.35 39.0864 24.294 39.3478 24.182C39.6184 24.07 39.8518 23.9113 40.0478 23.706C40.2531 23.4913 40.4118 23.2347 40.5238 22.936C40.6358 22.628 40.6918 22.2827 40.6918 21.9C40.6918 21.5173 40.6358 21.1767 40.5238 20.878C40.4118 20.57 40.2531 20.3133 40.0478 20.108C39.8518 19.8933 39.6184 19.73 39.3478 19.618C39.0864 19.506 38.8018 19.45 38.4938 19.45C38.1858 19.45 37.8964 19.506 37.6258 19.618C37.3644 19.73 37.1311 19.8933 36.9258 20.108C36.7298 20.3133 36.5758 20.57 36.4638 20.878C36.3518 21.1767 36.2958 21.5173 36.2958 21.9C36.2958 22.2827 36.3518 22.628 36.4638 22.936C36.5758 23.2347 36.7298 23.4913 36.9258 23.706C37.1311 23.9113 37.3644 24.07 37.6258 24.182C37.8964 24.294 38.1858 24.35 38.4938 24.35ZM50.1409 27.024C49.3569 27.024 48.6289 26.9027 47.9569 26.66C47.2942 26.408 46.7156 26.0533 46.2209 25.596C45.7356 25.1387 45.3576 24.5973 45.0869 23.972C44.8162 23.3467 44.6809 22.656 44.6809 21.9C44.6809 21.144 44.8162 20.4533 45.0869 19.828C45.3576 19.2027 45.7356 18.6613 46.2209 18.204C46.7156 17.7467 47.2942 17.3967 47.9569 17.154C48.6289 16.902 49.3569 16.776 50.1409 16.776C51.1022 16.776 51.9516 16.944 52.6889 17.28C53.4356 17.616 54.0516 18.1013 54.5369 18.736L52.4509 20.598C52.1616 20.234 51.8396 19.954 51.4849 19.758C51.1396 19.5527 50.7476 19.45 50.3089 19.45C49.9636 19.45 49.6509 19.506 49.3709 19.618C49.0909 19.73 48.8482 19.8933 48.6429 20.108C48.4469 20.3227 48.2929 20.584 48.1809 20.892C48.0689 21.1907 48.0129 21.5267 48.0129 21.9C48.0129 22.2733 48.0689 22.614 48.1809 22.922C48.2929 23.2207 48.4469 23.4773 48.6429 23.692C48.8482 23.9067 49.0909 24.07 49.3709 24.182C49.6509 24.294 49.9636 24.35 50.3089 24.35C50.7476 24.35 51.1396 24.252 51.4849 24.056C51.8396 23.8507 52.1616 23.566 52.4509 23.202L54.5369 25.064C54.0516 25.6893 53.4356 26.1747 52.6889 26.52C51.9516 26.856 51.1022 27.024 50.1409 27.024ZM57.6928 26.8V18.848L58.4068 19.562H54.8228V17H63.8108V19.562H60.2268L60.9408 18.848V26.8H57.6928ZM64.9004 26.8V17H69.6184C70.5331 17 71.3217 17.1493 71.9844 17.448C72.6564 17.7467 73.1744 18.176 73.5384 18.736C73.9024 19.2867 74.0844 19.94 74.0844 20.696C74.0844 21.452 73.9024 22.1053 73.5384 22.656C73.1744 23.2067 72.6564 23.636 71.9844 23.944C71.3217 24.2427 70.5331 24.392 69.6184 24.392H66.7344L68.2044 22.978V26.8H64.9004ZM68.2044 23.342L66.7344 21.844H69.4084C69.8657 21.844 70.2017 21.7413 70.4164 21.536C70.6404 21.3307 70.7524 21.0507 70.7524 20.696C70.7524 20.3413 70.6404 20.0613 70.4164 19.856C70.2017 19.6507 69.8657 19.548 69.4084 19.548H66.7344L68.2044 18.05V23.342ZM80.2067 27.024C79.4133 27.024 78.676 26.898 77.9947 26.646C77.3227 26.394 76.7393 26.0393 76.2447 25.582C75.75 25.1153 75.3627 24.5693 75.0827 23.944C74.812 23.3187 74.6767 22.6373 74.6767 21.9C74.6767 21.1533 74.812 20.472 75.0827 19.856C75.3627 19.2307 75.75 18.6893 76.2447 18.232C76.7393 17.7653 77.3227 17.406 77.9947 17.154C78.676 16.902 79.4133 16.776 80.2067 16.776C81.0093 16.776 81.7467 16.902 82.4187 17.154C83.0907 17.406 83.674 17.7653 84.1687 18.232C84.6633 18.6893 85.046 19.2307 85.3167 19.856C85.5967 20.472 85.7367 21.1533 85.7367 21.9C85.7367 22.6373 85.5967 23.3187 85.3167 23.944C85.046 24.5693 84.6633 25.1153 84.1687 25.582C83.674 26.0393 83.0907 26.394 82.4187 26.646C81.7467 26.898 81.0093 27.024 80.2067 27.024ZM80.2067 24.35C80.5147 24.35 80.7993 24.294 81.0607 24.182C81.3313 24.07 81.5647 23.9113 81.7607 23.706C81.966 23.4913 82.1247 23.2347 82.2367 22.936C82.3487 22.628 82.4047 22.2827 82.4047 21.9C82.4047 21.5173 82.3487 21.1767 82.2367 20.878C82.1247 20.57 81.966 20.3133 81.7607 20.108C81.5647 19.8933 81.3313 19.73 81.0607 19.618C80.7993 19.506 80.5147 19.45 80.2067 19.45C79.8987 19.45 79.6093 19.506 79.3387 19.618C79.0773 19.73 78.844 19.8933 78.6387 20.108C78.4427 20.3133 78.2887 20.57 78.1767 20.878C78.0647 21.1767 78.0087 21.5173 78.0087 21.9C78.0087 22.2827 78.0647 22.628 78.1767 22.936C78.2887 23.2347 78.4427 23.4913 78.6387 23.706C78.844 23.9113 79.0773 24.07 79.3387 24.182C79.6093 24.294 79.8987 24.35 80.2067 24.35ZM89.9498 20.64H94.3178V23.02H89.9498V20.64ZM90.1738 24.308H95.0738V26.8H86.9258V17H94.8918V19.492H90.1738V24.308ZM102.434 26.8L99.9981 22.208L102.63 20.668L106.158 26.8H102.434ZM96.3301 26.8V17H99.6341V26.8H96.3301ZM98.6821 23.258V20.654H102.392V23.258H98.6821ZM102.952 22.25L99.9141 21.942L102.728 17H106.172L102.952 22.25ZM7.45058e-09 43.8V34H4.97C6.18333 34 7.12133 34.224 7.784 34.672C8.456 35.12 8.792 35.75 8.792 36.562C8.792 37.3553 8.484 37.9853 7.868 38.452C7.252 38.9093 6.42133 39.138 5.376 39.138L5.656 38.382C6.76667 38.382 7.63933 38.6013 8.274 39.04C8.90867 39.4787 9.226 40.118 9.226 40.958C9.226 41.826 8.88067 42.5167 8.19 43.03C7.49933 43.5433 6.51467 43.8 5.236 43.8H7.45058e-09ZM3.248 41.49H5.082C5.35267 41.49 5.55333 41.4247 5.684 41.294C5.824 41.154 5.894 40.958 5.894 40.706C5.894 40.454 5.824 40.2673 5.684 40.146C5.55333 40.0153 5.35267 39.95 5.082 39.95H3.248V41.49ZM3.248 37.766H4.648C4.928 37.766 5.13333 37.7053 5.264 37.584C5.39467 37.4627 5.46 37.2853 5.46 37.052C5.46 36.8093 5.39467 36.6273 5.264 36.506C5.13333 36.3753 4.928 36.31 4.648 36.31H3.248V37.766ZM16.8276 43.8V35.848L17.5416 36.562H13.9576V34H22.9456V36.562H19.3616L20.0756 35.848V43.8H16.8276ZM24.0352 43.8V34H27.2832V37.472H29.8172V40.188H27.2832V43.8H24.0352ZM33.2892 44.024C32.5052 44.024 31.7818 43.898 31.1192 43.646C30.4658 43.394 29.8918 43.0393 29.3972 42.582C28.9118 42.1153 28.5338 41.5693 28.2632 40.944C28.0018 40.3187 27.8712 39.6373 27.8712 38.9C27.8712 38.1533 28.0018 37.472 28.2632 36.856C28.5338 36.2307 28.9118 35.6893 29.3972 35.232C29.8918 34.7653 30.4658 34.406 31.1192 34.154C31.7818 33.902 32.5052 33.776 33.2892 33.776C34.0732 33.776 34.7918 33.902 35.4452 34.154C36.1078 34.406 36.6818 34.7653 37.1672 35.232C37.6525 35.6893 38.0258 36.2307 38.2872 36.856C38.5578 37.472 38.6932 38.1533 38.6932 38.9C38.6932 39.6373 38.5578 40.3187 38.2872 40.944C38.0258 41.5693 37.6525 42.1153 37.1672 42.582C36.6818 43.0393 36.1078 43.394 35.4452 43.646C34.7918 43.898 34.0732 44.024 33.2892 44.024ZM33.2892 41.35C33.5785 41.35 33.8445 41.294 34.0872 41.182C34.3392 41.07 34.5585 40.9113 34.7452 40.706C34.9412 40.4913 35.0905 40.2347 35.1932 39.936C35.3052 39.628 35.3612 39.2827 35.3612 38.9C35.3612 38.5173 35.3052 38.1767 35.1932 37.878C35.0905 37.57 34.9412 37.3133 34.7452 37.108C34.5585 36.8933 34.3392 36.73 34.0872 36.618C33.8445 36.506 33.5785 36.45 33.2892 36.45C32.9998 36.45 32.7292 36.506 32.4772 36.618C32.2252 36.73 32.0012 36.8933 31.8052 37.108C31.6185 37.3133 31.4692 37.57 31.3572 37.878C31.2545 38.1767 31.2032 38.5173 31.2032 38.9C31.2032 39.2827 31.2545 39.628 31.3572 39.936C31.4692 40.2347 31.6185 40.4913 31.8052 40.706C32.0012 40.9113 32.2252 41.07 32.4772 41.182C32.7292 41.294 32.9998 41.35 33.2892 41.35ZM39.8945 43.8V34H42.6105L46.5305 40.398H45.1025L48.9105 34H51.6265L51.6545 43.8H48.6445L48.6165 38.536H49.0925L46.4885 42.918H45.0325L42.3165 38.536H42.9045V43.8H39.8945ZM56.399 37.64H60.767V40.02H56.399V37.64ZM56.623 41.308H61.523V43.8H53.375V34H61.341V36.492H56.623V41.308ZM69.2193 34H72.5233V43.8H69.2193V34ZM66.1673 43.8H62.8633V34H66.1673V43.8ZM69.4433 40.188H65.9433V37.472H69.4433V40.188ZM74.2656 43.8V34H77.5136V39.096L80.8876 34H83.9956V43.8H80.7476V38.718L77.3876 43.8H74.2656Z" fill="#DC3F3F"/>
</svg>
