<svg width="26" height="26" viewBox="0 0 26 26" fill="none" xmlns="http://www.w3.org/2000/svg">
<path fill-rule="evenodd" clip-rule="evenodd" d="M1.01563 21.9797H4.14634C4.56371 20.8212 5.67354 19.9906 6.97399 19.9906C8.27445 19.9906 9.38427 20.8212 9.80164 21.9797H24.9844C25.5453 21.9797 26 22.4344 26 22.9953C26 23.5563 25.5453 24.011 24.9844 24.011H9.80164C9.38427 25.1694 8.27445 26.0001 6.97399 26.0001C5.67354 26.0001 4.56371 25.1694 4.14634 24.011H1.01563C0.454695 24.011 0 23.5563 0 22.9953C0 22.4344 0.454695 21.9797 1.01563 21.9797ZM6.97399 23.9688C7.51075 23.9688 7.94747 23.5321 7.94747 22.9953C7.94747 22.4586 7.51075 22.0219 6.97399 22.0219C6.43723 22.0219 6.00052 22.4586 6.00052 22.9953C6.00052 23.5321 6.43723 23.9688 6.97399 23.9688ZM16.1984 11.9844L1.01563 11.9844C0.454695 11.9844 0 12.4391 0 13C0 13.561 0.454695 14.0157 1.01563 14.0157L16.1984 14.0157C16.6157 15.1741 17.7255 16.0048 19.026 16.0048C20.3265 16.0048 21.4363 15.1741 21.8537 14.0157H24.9844C25.5453 14.0157 26 13.561 26 13C26 12.4391 25.5453 11.9844 24.9844 11.9844H21.8537C21.4363 10.8259 20.3265 9.99531 19.026 9.99531C17.7255 9.99531 16.6157 10.8259 16.1984 11.9844ZM19.9995 13C19.9995 13.5368 19.5628 13.9735 19.026 13.9735C18.4893 13.9735 18.0525 13.5368 18.0525 13C18.0525 12.4633 18.4893 12.0266 19.026 12.0266C19.5628 12.0266 19.9995 12.4633 19.9995 13ZM4.14634 1.98911H1.01563C0.454695 1.98911 0 2.4438 0 3.00473C0 3.56566 0.454695 4.02036 1.01563 4.02036H4.14634C4.56371 5.17883 5.67354 6.00946 6.97399 6.00946C8.27445 6.00946 9.38427 5.17883 9.80164 4.02036H24.9844C25.5453 4.02036 26 3.56566 26 3.00473C26 2.4438 25.5453 1.98911 24.9844 1.98911H9.80164C9.38427 0.830635 8.27445 3.8147e-06 6.97399 3.8147e-06C5.67354 3.8147e-06 4.56371 0.830635 4.14634 1.98911ZM7.94747 3.00473C7.94747 3.54149 7.51075 3.97821 6.97399 3.97821C6.43723 3.97821 6.00052 3.54149 6.00052 3.00473C6.00052 2.46798 6.43723 2.03126 6.97399 2.03126C7.51075 2.03126 7.94747 2.46798 7.94747 3.00473Z" fill="#A8A8A8"/>
</svg>
